<mxfile host="app.diagrams.net" modified="2023-11-14T13:01:28.130Z" agent="Mozilla/5.0 (Windows NT 10.0; Win64; x64) AppleWebKit/537.36 (KHTML, like Gecko) Chrome/119.0.0.0 Safari/537.36" etag="JJHANzHfat7VW0ANuS4s" version="22.1.0" type="device">
  <diagram name="ch.5" id="W-WTiPJvPfhTmiNMGL1m">
    <mxGraphModel dx="1507" dy="939" grid="0" gridSize="10" guides="1" tooltips="1" connect="1" arrows="1" fold="1" page="1" pageScale="1" pageWidth="827" pageHeight="1169" math="0" shadow="0">
      <root>
        <mxCell id="0" />
        <mxCell id="1" parent="0" />
        <mxCell id="hA-8pL-91wl6nMAKJwAp-1" value="" style="rounded=0;whiteSpace=wrap;html=1;fontFamily=Pretendard-Regular;fontSource=https%3A%2F%2Fcdn.jsdelivr.net%2Fgh%2FProject-Noonnu%2Fnoonfonts_2107%401.1%2FPretendard-Regular.woff;" vertex="1" parent="1">
          <mxGeometry x="14" y="88" width="80" height="40" as="geometry" />
        </mxCell>
        <mxCell id="hA-8pL-91wl6nMAKJwAp-2" value="리터럴" style="text;strokeColor=none;align=center;fillColor=none;html=1;verticalAlign=middle;whiteSpace=wrap;rounded=0;fontFamily=Pretendard-Regular;fontSource=https%3A%2F%2Fcdn.jsdelivr.net%2Fgh%2FProject-Noonnu%2Fnoonfonts_2107%401.1%2FPretendard-Regular.woff;" vertex="1" parent="1">
          <mxGeometry x="24" y="58" width="60" height="30" as="geometry" />
        </mxCell>
        <mxCell id="hA-8pL-91wl6nMAKJwAp-3" value="3" style="text;strokeColor=none;align=center;fillColor=none;html=1;verticalAlign=middle;whiteSpace=wrap;rounded=0;fontFamily=Pretendard-Regular;fontSource=https%3A%2F%2Fcdn.jsdelivr.net%2Fgh%2FProject-Noonnu%2Fnoonfonts_2107%401.1%2FPretendard-Regular.woff;" vertex="1" parent="1">
          <mxGeometry x="24" y="93" width="60" height="30" as="geometry" />
        </mxCell>
        <mxCell id="hA-8pL-91wl6nMAKJwAp-8" value="" style="rounded=0;whiteSpace=wrap;html=1;fontFamily=Pretendard-Regular;fontSource=https%3A%2F%2Fcdn.jsdelivr.net%2Fgh%2FProject-Noonnu%2Fnoonfonts_2107%401.1%2FPretendard-Regular.woff;" vertex="1" parent="1">
          <mxGeometry x="214" y="48" width="80" height="40" as="geometry" />
        </mxCell>
        <mxCell id="hA-8pL-91wl6nMAKJwAp-9" value="" style="shape=flexArrow;endArrow=classic;html=1;rounded=0;width=20;endSize=5.292;fontFamily=Pretendard-Regular;fontSource=https%3A%2F%2Fcdn.jsdelivr.net%2Fgh%2FProject-Noonnu%2Fnoonfonts_2107%401.1%2FPretendard-Regular.woff;" edge="1" parent="1">
          <mxGeometry width="50" height="50" relative="1" as="geometry">
            <mxPoint x="124" y="108" as="sourcePoint" />
            <mxPoint x="184" y="107.5" as="targetPoint" />
            <Array as="points">
              <mxPoint x="144" y="108" />
            </Array>
          </mxGeometry>
        </mxCell>
        <mxCell id="hA-8pL-91wl6nMAKJwAp-11" value="" style="rounded=0;whiteSpace=wrap;html=1;fillColor=#ffe6cc;strokeColor=#d79b00;fontFamily=Pretendard-Regular;fontSource=https%3A%2F%2Fcdn.jsdelivr.net%2Fgh%2FProject-Noonnu%2Fnoonfonts_2107%401.1%2FPretendard-Regular.woff;" vertex="1" parent="1">
          <mxGeometry x="214" y="88" width="80" height="40" as="geometry" />
        </mxCell>
        <mxCell id="hA-8pL-91wl6nMAKJwAp-12" value="" style="rounded=0;whiteSpace=wrap;html=1;fontFamily=Pretendard-Regular;fontSource=https%3A%2F%2Fcdn.jsdelivr.net%2Fgh%2FProject-Noonnu%2Fnoonfonts_2107%401.1%2FPretendard-Regular.woff;" vertex="1" parent="1">
          <mxGeometry x="214" y="128" width="80" height="40" as="geometry" />
        </mxCell>
        <mxCell id="hA-8pL-91wl6nMAKJwAp-13" value="" style="rounded=0;whiteSpace=wrap;html=1;fontFamily=Pretendard-Regular;fontSource=https%3A%2F%2Fcdn.jsdelivr.net%2Fgh%2FProject-Noonnu%2Fnoonfonts_2107%401.1%2FPretendard-Regular.woff;" vertex="1" parent="1">
          <mxGeometry x="214" y="8" width="80" height="40" as="geometry" />
        </mxCell>
        <mxCell id="hA-8pL-91wl6nMAKJwAp-14" value="" style="rounded=0;whiteSpace=wrap;html=1;" vertex="1" parent="1">
          <mxGeometry x="214" y="168" width="80" height="40" as="geometry" />
        </mxCell>
        <mxCell id="hA-8pL-91wl6nMAKJwAp-10" value="평가" style="text;strokeColor=none;align=center;fillColor=none;html=1;verticalAlign=middle;whiteSpace=wrap;rounded=0;fontFamily=Pretendard-Regular;fontSource=https%3A%2F%2Fcdn.jsdelivr.net%2Fgh%2FProject-Noonnu%2Fnoonfonts_2107%401.1%2FPretendard-Regular.woff;" vertex="1" parent="1">
          <mxGeometry x="134" y="88" width="30" height="40" as="geometry" />
        </mxCell>
        <mxCell id="hA-8pL-91wl6nMAKJwAp-21" value="3" style="text;strokeColor=none;align=center;fillColor=none;html=1;verticalAlign=middle;whiteSpace=wrap;rounded=0;fontFamily=Pretendard-Regular;fontSource=https%3A%2F%2Fcdn.jsdelivr.net%2Fgh%2FProject-Noonnu%2Fnoonfonts_2107%401.1%2FPretendard-Regular.woff;" vertex="1" parent="1">
          <mxGeometry x="224" y="93" width="60" height="30" as="geometry" />
        </mxCell>
      </root>
    </mxGraphModel>
  </diagram>
</mxfile>
